<?xml version="1.0" standalone="no"?><!DOCTYPE svg PUBLIC "-//W3C//DTD SVG 1.1//EN" "http://www.w3.org/Graphics/SVG/1.1/DTD/svg11.dtd"><svg t="1610008628471" class="icon" viewBox="0 0 1024 1024" version="1.1" xmlns="http://www.w3.org/2000/svg" p-id="3756" xmlns:xlink="http://www.w3.org/1999/xlink" width="200" height="200"><defs><style type="text/css"></style></defs><path d="M814.9 248.9H688.5l-22.7-91.4c-0.1-0.5-0.3-1-0.4-1.5-4.4-14-17.2-23.3-31.8-23.3h-242c-14.6 0-27.4 9.4-31.8 23.3-0.2 0.5-0.3 1-0.4 1.5l-4.8 19.2H259c-11 0-20 9-20 20v52.1h-28.9c-64.9 0-117.7 52.8-117.7 117.8v393c0 65 52.8 117.8 117.7 117.8h604.7c64.9 0 117.7-52.8 117.7-117.8v-393c0-64.8-52.7-117.7-117.6-117.7zM279 216.8h65.5l-8 32.1H279v-32.1z m603.5 543c0 37.4-30.4 67.8-67.7 67.8H210.1c-37.3 0-67.7-30.4-67.7-67.8v-393c0-37.4 30.4-67.8 67.7-67.8H356c11.5 0 21.5-7.8 24.3-19l18.7-75.1c0.9-2 1.4-4.2 1.6-6.5l3.9-15.6h216l24.2 97.2c2.8 11.1 12.8 19 24.3 19h145.9c37.3 0 67.7 30.4 67.7 67.8v393z" p-id="3757"></path><path d="M513.5 337.3c-57.8 0-112.2 22.5-153 63.4-40.9 40.9-63.4 95.2-63.4 153s22.5 112.2 63.4 153c40.9 40.9 95.2 63.4 153 63.4s112.2-22.5 153-63.4c40.9-40.9 63.4-95.2 63.4-153s-22.5-112.2-63.4-153c-40.8-40.9-95.2-63.4-153-63.4z m0 382.9c-91.8 0-166.4-74.7-166.4-166.4s74.7-166.4 166.4-166.4S680 462 680 553.7s-74.7 166.5-166.5 166.5z" p-id="3758"></path><path d="M513.5 419.3c-74.1 0-134.5 60.3-134.5 134.5s60.3 134.5 134.5 134.5S648 627.9 648 553.7s-60.3-134.4-134.5-134.4z m0 228.9c-52.1 0-94.5-42.4-94.5-94.5s42.4-94.5 94.5-94.5 94.5 42.4 94.5 94.5-42.4 94.5-94.5 94.5z" p-id="3759"></path></svg>