<svg t="1590463136458" class="icon" viewBox="0 0 1025 1024" version="1.1" xmlns="http://www.w3.org/2000/svg" p-id="38280" width="128" height="128"><path d="M247.543544 300.844845c0 16.912913 13.837838 30.750751 31.263263 30.750751 16.912913 0 31.263263-13.837838 31.263263-30.750751s-13.837838-30.750751-31.263263-30.750751c-17.425425-0.512513-31.263263 13.325325-31.263263 30.750751zM406.422422 237.805806c0 11.275275 9.225225 20.500501 20.500501 20.5005s20.500501-9.225225 20.5005-20.5005-9.225225-20.500501-20.5005-20.500501c-11.275275-0.512513-20.500501 8.712713-20.500501 20.500501zM534.038038 331.083083c11.275275 2.05005 22.038038-5.637638 24.088088-16.912913 2.05005-11.275275-5.637638-22.038038-16.912913-24.088088-11.275275-2.05005-22.038038 5.637638-24.088088 16.912913-2.05005 11.275275 5.637638 22.038038 16.912913 24.088088zM682.666667 241.905906c13.837838 2.562563 27.163163-6.662663 29.213213-20.500501 2.562563-13.837838-6.662663-26.650651-20.500501-29.213213s-27.163163 6.662663-29.213213 20.500501c-2.562563 13.325325 6.662663 26.650651 20.500501 29.213213zM767.231231 342.870871c13.325325 2.562563 25.625626-6.15015 28.188188-19.475476 2.562563-13.325325-6.662663-25.625626-19.475475-28.188188-13.325325-2.562563-25.625626 6.15015-28.188188 19.475476s6.15015 25.625626 19.475475 28.188188z" p-id="38281"></path><path d="M1010.162162 382.334334c-4.612613-4.612613-10.762763-7.175175-16.912913-7.175175h-54.838839c-6.662663-22.038038-18.962963-42.026026-35.363363-56.888889 1.025025-7.175175 1.537538-14.35035 1.537538-22.038038 0-66.626627-38.438438-114.29029-98.402403-119.927928-18.45045-46.638639-65.601602-81.489489-123.515515-88.664664-44.588589-5.637638-88.664665 7.175175-119.927928 33.313313-33.825826-18.962963-76.364364-18.962963-110.19019 1.025025-27.675676-28.188188-68.676677-45.101101-112.752753-45.101101-58.426426 0-104.04004 23.063063-127.615616 68.164164-47.151151 15.887888-80.464464 62.526527-82.002002 116.34034-30.750751 23.575576-49.713714 62.014014-49.713714 103.527528 0 3.075075 0 6.15015 0.512513 9.737738h-47.151151c-6.662663 0-12.812813 2.562563-16.912913 7.175175-4.612613 4.612613-6.662663 11.275275-6.15015 17.425425 11.275275 179.379379 117.365365 337.745746 278.294294 418.21021v54.326327c0 33.313313 27.163163 59.963964 60.476477 59.963964h329.545545c33.313313 0 60.476476-27.163163 60.476477-59.963964v-54.326327c160.928929-79.951952 267.019019-238.830831 278.294294-418.21021-1.025025-6.15015-3.075075-12.3003-7.687688-16.912913z m-892.284284-16.912913c0-30.238238 14.862863-57.401401 38.438438-71.239239 7.687688-4.612613 12.3003-12.812813 11.275276-21.525525v-1.025025-4.612613c0-38.438438 26.650651-71.239239 59.451451-78.926927 7.687688-1.537538 13.837838-7.175175 16.912913-14.35035 13.325325-33.825826 51.763764-56.376376 95.83984-56.376377 37.413413 0 71.239239 14.35035 88.664664 41.001001 4.1001 5.637638 9.737738 9.737738 16.912913 10.250251 6.662663 1.025025 13.837838-1.537538 18.962963-6.150151 24.600601-22.038038 60.476476-23.575576 86.102102-2.05005 9.737738 8.2002 24.600601 7.175175 33.313314-2.562562 20.500501-24.600601 56.376376-34.338338 93.78979-29.725726 44.588589 5.637638 80.976977 34.338338 88.664664 70.214214 2.562563 11.275275 13.325325 19.475475 25.113113 18.450451 1.537538 0 3.587588-0.512513 5.125125-0.512513 38.950951 0 70.726727 35.875876 70.726727 80.464465 0 8.2002-1.025025 16.912913-3.587587 24.6006-2.562563 9.737738 1.025025 19.987988 9.225225 25.625626 10.25025 7.175175 18.45045 16.912913 24.6006 28.700701h-778.506506c-0.512513-4.1001-1.025025-7.175175-1.025025-10.250251z m567.351351 526.862863h-343.383383c-7.175175 0-13.325325-6.15015-13.325325-13.325325V829.245245h370.034034v49.713714c0 7.687688-6.15015 13.325325-13.325326 13.325325z m24.600601-103.527527c-0.512513 0-1.025025 0.512513-1.537538 1.025025h-386.946947c-0.512513 0-1.025025-0.512513-1.537537-1.025025-135.815816-54.838839-252.668669-197.82983-269.581582-374.134134H978.898899c-13.325325 170.666667-127.103103 318.782783-269.069069 374.134134z" p-id="38282"></path><path d="M298.282282 682.154154c2.562563 1.537538 5.637638 2.562563 8.712713 2.05005 5.125125 0 9.737738-2.562563 12.3003-7.175175 4.612613-7.175175 2.05005-16.4004-5.125125-21.013013-106.602603-67.651652-127.103103-154.266266-127.615615-155.291291-2.562563-8.2002-11.275275-12.3003-19.475476-10.250251-8.2002 2.562563-12.812813 11.275275-10.25025 18.962963 2.05005 3.587588 16.4004 95.83984 141.453453 172.716717z" p-id="38283"></path></svg>
