<svg t="1590462494295" class="icon" viewBox="0 0 1024 1024" version="1.1" xmlns="http://www.w3.org/2000/svg" p-id="37183" width="128" height="128"><path d="M458.077867 660.974933c31.744-31.752533 31.744-83.387733 0.0256-115.106133-31.744-31.735467-83.328-31.7184-115.0976 0.034133-31.7184 31.735467-31.744 83.345067 0 115.072 31.7952 31.735467 83.285333 31.709867 115.072 0z" p-id="37184"></path><path d="M409.890133 716.885333a113.339733 113.339733 0 0 0 71.1936-32.913066c44.4416-44.433067 44.416-116.693333 0-161.083734-44.381867-44.407467-116.6592-44.450133-161.092266 0-44.433067 44.416-44.3904 116.693333 0 161.083734a113.493333 113.493333 0 0 0 57.7024 31.018666c10.589867 2.133333 21.4272 2.781867 32.196266 1.8944z m-66.884266-170.9824c31.744-31.744 83.3536-31.7696 115.072-0.034133 31.6928 31.6928 31.7184 83.362133 0 115.106133-31.744 31.735467-83.3792 31.709867-115.0976 0-31.709867-31.803733-31.6928-83.285333 0.0256-115.072z" p-id="37185"></path><path d="M896.128 956.117333h-769.706667c-31.2064 0-54.084267-24.951467-54.084266-54.084266V404.846933c0-12.475733 8.32-20.804267 20.804266-20.804266 12.475733 0 20.804267 8.32 20.804267 20.804266v495.104c0 6.2464 6.237867 12.484267 12.484267 12.484267h769.706666c6.229333 0 12.475733-6.229333 12.475734-12.484267v-495.104c0-12.475733 8.328533-20.804267 20.804266-20.804266s20.804267 8.32 20.804267 20.804266v495.104c-0.008533 31.214933-24.977067 56.1664-54.0928 56.1664z" p-id="37186"></path><path d="M772.104533 741.853867H685.5936c-12.484267 0-20.804267-8.32-20.804267-20.804267s8.328533-20.804267 20.804267-20.804267h86.519467c12.484267 0 20.804267-8.32 20.804266-20.804266V461.013333c0-12.484267-8.328533-20.804267-20.804266-20.804266H224.827733c-12.475733 0-20.804267 8.32-20.804266 20.804266v218.436267c0 12.484267 8.32 20.804267 20.804266 20.804267h43.690667c12.484267 0 20.804267 8.32 20.804267 20.804266s-8.32 20.804267-20.804267 20.804267h-43.690667c-35.362133 0-62.404267-27.0336-62.404266-62.404267V461.013333c0-35.370667 27.042133-62.404267 62.404266-62.404266h547.285334c35.370667 0 62.404267 27.042133 62.404266 62.404266v218.436267c0 35.370667-27.042133 62.404267-62.4128 62.404267z" p-id="37187"></path><path d="M584.081067 885.4016c-8.328533 0-14.5664-4.164267-16.648534-10.402133a185.147733 185.147733 0 0 0-172.654933-118.5792c-74.888533 0-145.621333 47.8464-172.663467 118.5792-2.082133 6.229333-8.32 10.402133-16.64 10.402133h-6.237866c-8.32-4.164267-12.475733-12.484267-10.402134-22.8864 16.64-41.617067 43.690667-74.897067 79.0528-99.8656 37.444267-24.951467 81.134933-39.517867 124.817067-39.517867 45.764267 0 89.454933 14.5664 126.8992 39.517867 35.362133 24.968533 64.494933 60.330667 79.0528 101.930667a13.312 13.312 0 0 1 0 12.484266c-2.0736 4.164267-6.237867 8.337067-10.402133 8.337067h-4.1728zM679.765333 562.952533c-10.402133 0-16.631467-8.32-16.631466-16.648533 0-10.402133 8.32-16.631467 16.631466-16.631467h45.7728c10.402133 0 16.64 8.32 16.64 16.631467 0 10.402133-8.328533 16.648533-16.64 16.648533H679.765333z m-122.734933-54.0928c-10.402133 0-16.64-8.32-16.64-16.64 0-10.402133 8.328533-16.64 16.64-16.64h153.941333c10.402133 0 16.64 8.32 16.64 16.64s-8.32 16.64-16.64 16.64h-153.941333z" p-id="37188"></path><path d="M573.687467 860.433067h-2.082134c-6.237867-2.082133-10.402133-10.402133-6.237866-16.648534l112.3328-253.781333c2.0736-6.2464 10.402133-10.4192 16.64-6.2464 6.237867 2.082133 10.402133 10.402133 6.237866 16.648533L586.154667 852.113067c0 6.237867-6.237867 10.402133-12.4672 8.32zM41.122133 454.775467c-6.237867 0-12.484267-2.082133-16.64-8.32-6.237867-8.32-6.237867-22.8864 4.155734-29.124267l470.152533-368.213333c8.32-6.237867 22.877867-6.237867 29.1328 4.155733 6.229333 8.32 6.229333 22.8864-4.164267 29.124267L53.6064 450.6112c-4.164267 4.164267-8.32 4.164267-12.484267 4.164267z" p-id="37189"></path><path d="M983.492267 456.8576c-4.155733 0-8.32-2.082133-12.484267-4.155733L498.7904 82.4064c-8.32-6.237867-10.402133-20.804267-4.164267-29.124267 6.237867-8.32 20.804267-10.402133 29.124267-4.155733l472.226133 370.286933c8.328533 6.237867 10.402133 20.804267 4.155734 29.124267-4.155733 6.237867-10.402133 8.32-16.64 8.32z" p-id="37190"></path></svg>
