<svg t="1590462423535" class="icon" viewBox="0 0 1024 1024" version="1.1" xmlns="http://www.w3.org/2000/svg" p-id="37045" width="128" height="128"><path d="M877.714286 341.333333a97.52381 97.52381 0 0 1 97.523809 97.52381v365.714286a97.52381 97.52381 0 0 1-97.523809 97.523809H146.285714a97.52381 97.52381 0 0 1-97.523809-97.523809V438.857143a97.52381 97.52381 0 0 1 97.523809-97.52381h731.428572z m0 48.761905H146.285714a48.761905 48.761905 0 0 0-48.761904 48.761905v365.714286a48.761905 48.761905 0 0 0 48.761904 48.761904h731.428572a48.761905 48.761905 0 0 0 48.761904-48.761904V438.857143a48.761905 48.761905 0 0 0-48.761904-48.761905z" p-id="37046"></path><path d="M97.52381 170.666667m24.380952 0l780.190476 0q24.380952 0 24.380952 24.380952l0 0q0 24.380952-24.380952 24.380952l-780.190476 0q-24.380952 0-24.380952-24.380952l0 0q0-24.380952 24.380952-24.380952Z" p-id="37047"></path><path d="M292.571429 170.666667m24.380952 0l0 0q24.380952 0 24.380952 24.380952l0 170.666667q0 24.380952-24.380952 24.380952l0 0q-24.380952 0-24.380952-24.380952l0-170.666667q0-24.380952 24.380952-24.380952Z" p-id="37048"></path><path d="M682.666667 170.666667m24.380952 0l0 0q24.380952 0 24.380952 24.380952l0 170.666667q0 24.380952-24.380952 24.380952l0 0q-24.380952 0-24.380952-24.380952l0-170.666667q0-24.380952 24.380952-24.380952Z" p-id="37049"></path><path d="M205.287619 547.303619c18.432 0 33.792 4.827429 45.641143 14.482286 11.410286 9.216 18.212571 21.942857 20.626286 37.741714h-25.014858c-2.633143-10.313143-7.460571-17.773714-14.701714-22.601143-7.021714-4.827429-16.018286-7.021714-26.989714-7.021714-16.457143 0-28.745143 5.485714-37.083429 16.896-7.68 10.093714-11.410286 24.137143-11.410285 42.130286 0 18.432 3.730286 32.694857 11.190857 42.569142 8.118857 10.532571 20.845714 16.018286 37.961143 16.018286 11.190857 0 20.406857-2.852571 27.428571-8.118857 7.460571-5.924571 12.726857-14.921143 15.798857-26.770286h25.014857c-3.510857 18.432-11.629714 32.694857-24.576 43.008-12.068571 9.654857-26.550857 14.482286-43.446857 14.482286-26.112 0-45.641143-8.338286-58.368-24.576-11.190857-14.043429-16.676571-32.914286-16.676571-56.612571 0-23.259429 5.705143-42.349714 17.334857-56.832 13.165714-16.676571 32.256-24.795429 57.270857-24.795429z m107.227429 3.072h25.453714V685.104762h84.699428v21.942857h-110.153142v-156.672z m189.074285 0h29.184L590.677333 707.047619h-27.428571l-14.262857-39.277714h-65.609143L469.113905 707.047619h-27.428572l59.904-156.672z m-10.532571 96.329143h50.249143l-24.576-68.681143h-0.877715l-24.795428 68.681143z m184.905143-99.401143c18.432 0 32.914286 3.730286 43.227428 11.410286 10.971429 8.118857 17.334857 20.845714 18.870857 37.961143h-25.453714c-2.194286-9.654857-6.363429-16.676571-12.068571-20.845715-5.705143-4.388571-14.482286-6.363429-25.892572-6.363428-9.874286 0-17.334857 1.316571-22.601143 4.169143-6.582857 3.291429-9.654857 8.777143-9.654857 16.237714 0 6.582857 3.510857 12.068571 10.971429 16.018286 3.291429 1.755429 12.288 5.046857 26.770286 9.654857 21.284571 6.582857 34.889143 11.849143 41.033142 15.36 13.604571 8.118857 20.406857 19.309714 20.406858 33.792 0 14.043429-5.485714 25.234286-16.457143 33.353143-10.971429 7.899429-26.550857 12.068571-46.518857 12.068571-19.309714 0-34.450286-3.730286-45.202286-11.190857-13.165714-9.216-20.406857-23.698286-21.504-43.666286h25.453714c1.755429 11.849143 5.924571 20.406857 12.726857 25.453714 6.144 4.388571 15.579429 6.802286 28.525715 6.802286 11.410286 0 20.626286-1.974857 27.209142-5.705143 6.582857-3.949714 10.093714-8.996571 10.093715-15.579428 0-8.338286-5.046857-14.921143-14.701715-19.748572-3.072-1.536-13.165714-5.046857-30.500571-10.313143-19.309714-6.144-31.378286-10.532571-35.986286-13.165714-12.068571-7.241143-17.993143-17.773714-17.993143-31.597714 0-13.824 5.705143-24.795429 17.554286-32.694857 10.971429-7.68 24.795429-11.410286 41.691429-11.410286z m157.476571 0c18.432 0 32.914286 3.730286 43.227429 11.410286 10.971429 8.118857 17.334857 20.845714 18.870857 37.961143h-25.453714c-2.194286-9.654857-6.363429-16.676571-12.068572-20.845715-5.705143-4.388571-14.482286-6.363429-25.892571-6.363428-9.874286 0-17.334857 1.316571-22.601143 4.169143-6.582857 3.291429-9.654857 8.777143-9.654857 16.237714 0 6.582857 3.510857 12.068571 10.971428 16.018286 3.291429 1.755429 12.288 5.046857 26.770286 9.654857 21.284571 6.582857 34.889143 11.849143 41.033143 15.36 13.604571 8.118857 20.406857 19.309714 20.406857 33.792 0 14.043429-5.485714 25.234286-16.457143 33.353143-10.971429 7.899429-26.550857 12.068571-46.518857 12.068571-19.309714 0-34.450286-3.730286-45.202286-11.190857-13.165714-9.216-20.406857-23.698286-21.504-43.666286H794.819048c1.755429 11.849143 5.924571 20.406857 12.726857 25.453714 6.144 4.388571 15.579429 6.802286 28.525714 6.802286 11.410286 0 20.626286-1.974857 27.209143-5.705143 6.582857-3.949714 10.093714-8.996571 10.093714-15.579428 0-8.338286-5.046857-14.921143-14.701714-19.748572-3.072-1.536-13.165714-5.046857-30.500572-10.313143-19.309714-6.144-31.378286-10.532571-35.986285-13.165714-12.068571-7.241143-17.993143-17.773714-17.993143-31.597714 0-13.824 5.705143-24.795429 17.554286-32.694857 10.971429-7.68 24.795429-11.410286 41.691428-11.410286z" p-id="37050"></path></svg>
