<svg t="1590463233205" class="icon" viewBox="0 0 1024 1024" version="1.1" xmlns="http://www.w3.org/2000/svg" p-id="38687" width="128" height="128"><path d="M881.278495 157.590521a511.842182 511.842182 0 1 0 90.425452 129.154844 31.279244 31.279244 0 1 0-56.188897 27.582606 449.283693 449.283693 0 1 1-79.335539-113.401479 31.279244 31.279244 0 1 0 45.098984-43.335971z" p-id="38688"></path><path d="M225.153689 327.010283l139.562301 531.178442a31.279244 31.279244 0 1 0 60.511121-15.867107l-139.619173-531.178443a31.279244 31.279244 0 1 0-60.454249 15.923979z" p-id="38689"></path><path d="M322.972417 304.773584a31.279244 31.279244 0 0 1 5.289036-25.990209c57.55381-77.458784 147.296806-80.017994 257.57036-14.445324 90.425452 53.857172 108.965513 62.729103 121.704697 61.534805 4.720322-0.454971 39.241234-10.9193 51.070475-13.705996l2.047369-0.454971c39.639333-8.530703 70.747964 8.644446 73.477789 45.895182 1.706141 22.293571-7.961989 49.079978-25.250881 78.14124-34.350298 57.838167-89.003668 109.591098-134.387009 117.894316-32.985385 6.085235-59.828664 5.857749-106.520045 1.819883-40.947375-3.526024-53.857172-3.582895-64.150887 0.170614-5.289036 2.10424-18.141962 6.995176-19.848102 7.734504a10.407458 10.407458 0 0 0-2.957311 1.478656c-1.308041 1.137427-3.639767 3.639767-8.41696 9.440644 1.023684-1.25117-15.810236 19.33626-23.203512 28.208192a31.279244 31.279244 0 0 1-40.833632 6.31272c-14.843423-9.440645-10.293715 8.473832-85.591387-304.034256z m112.775894 197.514211a5573.392648 5573.392648 0 0 0 3.980995 15.58275l0.682456-0.625584c5.914621-5.06155 11.715499-8.360089 19.450003-11.601757 2.843568-1.137427 16.208336-6.255849 21.611114-8.473831 23.54474-8.530703 40.208047-8.530703 91.847236-4.037866 41.516088 3.582895 63.86653 3.753509 89.856739-1.023685 23.430998-4.265352 65.97077-44.53027 91.960979-88.321212 6.824562-11.488013 11.601756-21.895471 14.274709-29.800589-12.17047 3.412281-45.326469 13.080411-55.961412 14.160967-32.928514 3.127924-52.207903-6.085235-159.637889-70.065508-78.653082-46.805124-131.031599-49.307464-166.348709-12.62544 20.871787 86.444457 36.96638 152.073999 48.283779 196.774883z" p-id="38690"></path></svg>
