<svg t="1600681645572" class="icon" viewBox="0 0 1024 1024" version="1.1" xmlns="http://www.w3.org/2000/svg" p-id="13530" width="128" height="128"><path d="M874.3 167.8h-78.9c-3.6-35.6-34.1-64-70.4-64-36.3 0-66.9 28.4-70.4 64H369.3c-3.6-35.6-34.1-64-70.4-64-36.3 0-66.9 28.4-70.4 64h-78.9c-46.9 0-85.3 38.4-85.3 85.3v583.2c0 46.9 38.4 85.3 85.3 85.3H875c46.9 0 85.3-38.4 85.3-85.3V253.2c-0.7-46.9-39.1-85.4-86-85.4zM710.7 175c0-6.4 4.3-12.1 10-13.5h0.7c1.4 0 2.1-0.7 3.6-0.7 1.4 0 2.1 0 3.6 0.7h0.7c5.7 1.4 10 7.1 10 13.5v42.7c0 6.4-4.3 12.1-10 13.5h-0.7c-1.4 0-2.1 0.7-3.6 0.7-1.4 0-2.1 0-3.6-0.7h-0.7c-5.7-1.4-10-7.1-10-13.5V175zM284 175c0-6.4 4.3-12.1 10-13.5h0.7c1.4 0 2.1-0.7 3.6-0.7 1.4 0 2.1 0 3.6 0.7h0.7c5.7 1.4 10 7.1 10 13.5v42.7c0 6.4-4.3 12.1-10 13.5h-0.7c-1.4 0-2.1 0.7-3.6 0.7-1.4 0-2.1 0-3.6-0.7h-0.7c-5.7-1.4-10-7.1-10-13.5V175z m-163.6 78.2c0-15.6 12.8-28.4 28.5-28.4h78.9c3.6 35.6 34.1 64 70.4 64 36.3 0 66.9-28.4 70.4-64h285.2c3.6 35.6 34.1 64 70.4 64 36.3 0 66.9-28.4 70.4-64h78.9c15.6 0 28.5 12.8 28.5 28.4v85.3H120.4v-85.3z m782.3 583.2c0 15.6-12.8 28.4-28.4 28.4H148.8c-15.6 0-28.5-12.8-28.5-28.4v-441h782.3v441z" p-id="13531"></path><path d="M420.4 511.8c3.2 6.2 9.6 10 16.7 10 3 0 5.9-0.7 8.5-2.1 4.5-2.3 7.7-6.1 9.3-10.9 1.5-4.8 1.1-9.8-1.2-14.3l-20.1-38.3c-3.2-6.2-9.6-10-16.7-10-3 0-5.9 0.7-8.5 2-4.5 2.3-7.7 6.2-9.2 11-1.5 4.8-1.1 9.8 1.2 14.2l20 38.4z m107.5 114c-0.7-5-3.2-9.3-7.2-12.3-3.3-2.5-7.2-3.8-11.4-3.8-5.9 0-11.3 2.6-14.9 7.2l-27.8 35.9c-4.5-2.7-8.4-5-11.5-6.8l-7.6-4.3-0.4-10.7 7.7-9.5c32.3-38.2 42.7-64.4 42.8-64.7 1.8-4.6 1.7-9.6-0.2-14.1-2-4.6-5.6-8.1-10.3-10-2.1-0.9-4.3-1.2-6.8-1.2h-1.1l-0.6-0.1H365.3c-10.3 0-18.8 8.4-18.8 18.6 0 10.2 8.4 18.6 18.8 18.6h82.8c-17.3 25.8-49.5 64.6-105.8 106-4 3-6.6 7.3-7.4 12.3-0.7 4.9 0.6 9.9 3.5 13.8 3.5 4.8 9 7.5 15 7.5 4 0 7.9-1.2 11.2-3.7 19.1-14.1 37.2-29.1 53.7-44.6V795c0 10.3 8.4 18.6 18.7 18.6 10.3 0 18.8-8.4 18.8-18.6V690c12.8 8.3 29.3 20.1 39.2 31.7 3.6 4.1 8.7 6.4 14.2 6.4 4.5 0 8.7-1.5 12.1-4.4 3.8-3.2 6.1-7.7 6.5-12.7 0.4-5-1.2-9.8-4.5-13.6-6.3-7.3-14.8-15-25.9-23.5l26.6-34.3c3.2-3.9 4.6-8.8 3.9-13.8z m42-179.5c-10.3 0-18.7 8.4-18.7 18.6V795c0 10.3 8.4 18.6 18.7 18.6 10.3 0 18.7-8.4 18.7-18.6V465c0.1-10.3-8.3-18.7-18.7-18.7z m54.9 126.3c-3.5-3.5-8.2-5.5-13.2-5.5s-9.7 1.9-13.2 5.4c-3.6 3.5-5.5 8.2-5.5 13.2s2 9.7 5.5 13.1l59.5 58.8c3.5 3.5 8.2 5.5 13.2 5.5s9.7-1.9 13.2-5.5c3.5-3.5 5.5-8.2 5.5-13.2s-2-9.7-5.5-13.2l-59.5-58.6z m0 0" p-id="13532"></path></svg>
