<?xml version="1.0" standalone="no"?><!DOCTYPE svg PUBLIC "-//W3C//DTD SVG 1.1//EN" "http://www.w3.org/Graphics/SVG/1.1/DTD/svg11.dtd"><svg class="icon" width="200px" height="200.00px" viewBox="0 0 1024 1024" version="1.1" xmlns="http://www.w3.org/2000/svg"><path d="M170.666667 42.666667l170.666667 0q52.992 0 90.496 37.504t37.504 90.496l0 682.666667q0 52.992-37.504 90.496t-90.496 37.504l-170.666667 0q-52.992 0-90.496-37.504t-37.504-90.496l0-682.666667q0-52.992 37.504-90.496t90.496-37.504zM341.333333 128l-170.666667 0q-17.664 0-30.165333 12.501333t-12.501333 30.165333l0 682.666667q0 17.664 12.501333 30.165333t30.165333 12.501333l170.666667 0q17.664 0 30.165333-12.501333t12.501333-30.165333l0-682.666667q0-17.664-12.501333-30.165333t-30.165333-12.501333zM682.666667 554.666667l170.666667 0q52.992 0 90.496 37.504t37.504 90.496l0 170.666667q0 52.992-37.504 90.496t-90.496 37.504l-170.666667 0q-52.992 0-90.496-37.504t-37.504-90.496l0-170.666667q0-52.992 37.504-90.496t90.496-37.504zM853.333333 640l-170.666667 0q-17.664 0-30.165333 12.501333t-12.501333 30.165333l0 170.666667q0 17.664 12.501333 30.165333t30.165333 12.501333l170.666667 0q17.664 0 30.165333-12.501333t12.501333-30.165333l0-170.666667q0-17.664-12.501333-30.165333t-30.165333-12.501333zM682.666667 42.666667l170.666667 0q52.992 0 90.496 37.504t37.504 90.496l0 170.666667q0 52.992-37.504 90.496t-90.496 37.504l-170.666667 0q-52.992 0-90.496-37.504t-37.504-90.496l0-170.666667q0-52.992 37.504-90.496t90.496-37.504zM853.333333 128l-170.666667 0q-17.664 0-30.165333 12.501333t-12.501333 30.165333l0 170.666667q0 17.664 12.501333 30.165333t30.165333 12.501333l170.666667 0q17.664 0 30.165333-12.501333t12.501333-30.165333l0-170.666667q0-17.664-12.501333-30.165333t-30.165333-12.501333z" /></svg>
