<svg t="1590462634077" class="icon" viewBox="0 0 1024 1024" version="1.1" xmlns="http://www.w3.org/2000/svg" p-id="37602" width="128" height="128"><path d="M238.933333 187.733333H119.466667a17.066667 17.066667 0 0 0-17.066667 17.066667v34.133333h136.533333v-51.2z m68.266667 0v51.2h136.533333v-51.2h-136.533333z m204.8 0v51.2h136.533333v-34.133333a17.066667 17.066667 0 0 0-17.066666-17.066667h-119.466667z m136.533333 665.6H102.4v85.333334H34.133333V204.8a85.333333 85.333333 0 0 1 85.333334-85.333333h512a85.333333 85.333333 0 0 1 85.333333 85.333333v34.133333h238.933333a34.133333 34.133333 0 0 1 34.133334 34.133334v665.6h-68.266667v-85.333334H716.8v85.333334h-68.266667v-85.333334z m68.266667-68.266666h204.8V307.2H716.8v68.266667h204.8v68.266666H716.8v68.266667h204.8v68.266667H716.8v68.266666h204.8v68.266667H716.8v68.266667z m-68.266667-102.4V409.6H102.4v273.066667h546.133333z m0-341.333334v-34.133333H102.4v34.133333h546.133333z m0 443.733334v-34.133334H102.4v34.133334h546.133333z" p-id="37603"></path><path d="M102.4 614.4h204.8a17.066667 17.066667 0 0 1 17.066667 17.066667v34.133333a17.066667 17.066667 0 0 1-17.066667 17.066667H102.4v-68.266667z" p-id="37604"></path></svg>
