<svg t="1590463089853" class="icon" viewBox="0 0 1056 1024" version="1.1" xmlns="http://www.w3.org/2000/svg" p-id="38144" width="128" height="128"><path d="M953.310968 0H102.466065a102.730323 102.730323 0 0 0-102.466065 102.466065V726.709677a102.730323 102.730323 0 0 0 102.466065 102.466065c193.436903 0 518.936774 4.690581 851.439483 0A102.730323 102.730323 0 0 0 1056.437677 726.709677v-624.243612A103.655226 103.655226 0 0 0 953.310968 0z m23.651097 726.709677a23.320774 23.320774 0 0 1-23.651097 23.651097H102.466065a23.320774 23.320774 0 0 1-23.651097-23.651097v-624.243612a23.717161 23.717161 0 0 1 23.651097-23.651097h850.844903a23.320774 23.320774 0 0 1 23.651097 23.651097V726.709677z" p-id="38145"></path><path d="M779.693419 379.078194l-148.579096 148.579096a27.152516 27.152516 0 0 1-38.31742 0 26.029419 26.029419 0 0 1-2.972903-4.492387l-129.354323-129.354322-133.846709 133.846709a27.086452 27.086452 0 1 1-38.31742-38.317419l150.428904-150.428903a28.077419 28.077419 0 0 1 1.849806-2.77471 27.813161 27.813161 0 0 1 39.308387 0c0.330323 0.330323 0.462452 0.858839 0.792774 1.189161l132.129033 132.129033 130.477419-130.47742a28.209548 28.209548 0 0 1 1.849806-2.774709 27.747097 27.747097 0 1 1 34.683871 42.941935z" p-id="38146"></path><path d="M225.147871 924.903226m49.548387 0l495.483871 0q49.548387 0 49.548387 49.548387l0 0q0 49.548387-49.548387 49.548387l-495.483871 0q-49.548387 0-49.548387-49.548387l0 0q0-49.548387 49.548387-49.548387Z" p-id="38147"></path></svg>
