<svg t="1600681464356" class="icon" viewBox="0 0 1024 1024" version="1.1" xmlns="http://www.w3.org/2000/svg" p-id="11633" width="128" height="128"><path d="M803.588775 509.081865L492.94007 817.07772l138.744042 140.070467 310.648705-307.995855z m-251.22487 302.424871l245.123316-243.001037 87.809326 86.217617-245.123316 243.001036zM479.675822 830.872539l-56.770985 185.699482 195.515026-45.629016z m8.489119 42.445596l86.217617 87.013471-121.500519 28.650777zM1000.164941 539.854922L914.477894 453.106736a37.670466 37.670466 0 0 0-53.056995 0l-43.506735 42.976166 138.744041 140.601036 43.506736-42.976166a37.670466 37.670466 0 0 0 0-53.85285z m-29.977202 38.201037l-22.549223 22.814507-94.706736-95.50259 22.549223-22.814508a26.528497 26.528497 0 0 1 36.078757 0l58.627979 59.158549a26.528497 26.528497 0 0 1 0.265285 36.344042z" p-id="11634"></path><path d="M327.667532 1024H101.644734A89.401036 89.401036 0 0 1 12.508982 934.864249V89.135751A89.401036 89.401036 0 0 1 101.644734 0h721.044559a89.401036 89.401036 0 0 1 89.135752 89.135751v293.405182a26.528497 26.528497 0 0 1-53.056995 0V89.135751A36.078756 36.078756 0 0 0 822.689293 53.056995H101.644734A36.078756 36.078756 0 0 0 65.565977 89.135751v845.728498a36.078756 36.078756 0 0 0 36.078757 36.078756h226.022798a26.528497 26.528497 0 0 1 0 53.056995z" p-id="11635"></path><path d="M349.951469 119.378238a918.94715 918.94715 0 0 1-33.691191 106.11399v369.011399H269.039552V326.035233A358.665285 358.665285 0 0 1 238.797065 371.398964a327.892228 327.892228 0 0 0-25.202072-53.056995A561.343005 561.343005 0 0 0 304.322454 108.766839z m58.62798 371.398964v103.99171H362.685148V128.397927h147.498446v171.904664h-101.604145v49.873575h90.992746v41.119171h-90.992746v57.036269h97.359585v41.649741z m0-320.198964v88.870467h58.627979V169.517098z m279.610362 171.904664a378.031088 378.031088 0 0 1-62.872538 155.456994A219.921244 219.921244 0 0 0 710.739034 557.098446a188.352332 188.352332 0 0 0-29.711917 37.935751A255.204145 255.204145 0 0 1 596.135925 530.569948a301.894301 301.894301 0 0 1-102.134715 66.055959 157.048705 157.048705 0 0 0-26.528497-36.874612A248.306736 248.306736 0 0 0 569.607428 494.491192a441.434197 441.434197 0 0 1-48.01658-113.011399l26.528497-6.36684H516.550433v-40.588601h136.356477l7.958549-1.59171z m-7.958549-42.180311h-150.681865V257.326425h106.11399V170.578238h-106.11399V128.397927h150.681865z m-119.908808 75.606217a371.398964 371.398964 0 0 0 37.139896 85.156477 291.813472 291.813472 0 0 0 38.466322-85.156477z" p-id="11636"></path></svg>
