<svg t="1657000245239" class="icon" viewBox="0 0 1024 1024" version="1.1" xmlns="http://www.w3.org/2000/svg" p-id="2675" width="200" height="200"><path d="M723.27 587.57c87.54 0 158.76-71.22 158.76-158.76s-71.22-158.76-158.76-158.76-158.76 71.22-158.76 158.76 71.22 158.76 158.76 158.76z m0-247.01c48.66 0 88.25 39.59 88.25 88.25s-39.59 88.25-88.25 88.25-88.25-39.59-88.25-88.25 39.59-88.25 88.25-88.25z" p-id="2676"></path><path d="M777.78 625.84H594.57c-37.25-72.18-103.6-120.87-179.83-120.87H279.69c-116.67 0-211.57 112.99-211.57 251.88v135.81c0 19.46 15.79 35.25 35.25 35.25H920.1c19.46 0 35.25-15.79 35.25-35.25v-89.24c0.01-97.92-79.65-177.58-177.57-177.58zM138.63 756.85c0-100 63.28-181.37 141.07-181.37h135.05c77.79 0 141.07 81.37 141.07 181.37V857.4H138.63V756.85zM884.86 857.4H626.32V756.85c0-20.96-2.79-41.02-6.87-60.5h158.33c59.03 0 107.07 48.04 107.07 107.07v53.98zM347.22 470.52c103.81 0 188.26-84.44 188.26-188.26S451.03 94.01 347.22 94.01s-188.26 84.44-188.26 188.26 84.45 188.25 188.26 188.25z m0-306c64.93 0 117.75 52.81 117.75 117.75s-52.81 117.75-117.75 117.75-117.75-52.81-117.75-117.75 52.82-117.75 117.75-117.75z" p-id="2677"></path></svg>