<svg t="1590463475450" class="icon" viewBox="0 0 1024 1024" version="1.1" xmlns="http://www.w3.org/2000/svg" p-id="41016" width="128" height="128"><path d="M230.4 931.2H96c-48 0-89.6-38.4-89.6-89.6v-134.4c0-48 38.4-89.6 89.6-89.6h134.4c48 0 89.6 38.4 89.6 89.6v134.4c-3.2 51.2-41.6 89.6-89.6 89.6zM96 668.8c-22.4 0-38.4 19.2-38.4 38.4v134.4c0 22.4 19.2 38.4 38.4 38.4h134.4c22.4 0 38.4-19.2 38.4-38.4v-134.4c0-22.4-19.2-38.4-38.4-38.4H96zM579.2 931.2h-134.4c-48 0-89.6-38.4-89.6-89.6v-134.4c0-48 38.4-89.6 89.6-89.6h134.4c48 0 89.6 38.4 89.6 89.6v134.4c-3.2 51.2-41.6 89.6-89.6 89.6z m-134.4-262.4c-22.4 0-38.4 19.2-38.4 38.4v134.4c0 22.4 19.2 38.4 38.4 38.4h134.4c22.4 0 38.4-19.2 38.4-38.4v-134.4c0-22.4-19.2-38.4-38.4-38.4h-134.4zM579.2 348.8h-134.4c-48 0-89.6-38.4-89.6-89.6V128c0-48 38.4-89.6 89.6-89.6h134.4c48 0 89.6 38.4 89.6 89.6v134.4c-3.2 48-41.6 86.4-89.6 86.4z m-134.4-259.2c-22.4 0-38.4 19.2-38.4 38.4v134.4c0 22.4 19.2 38.4 38.4 38.4h134.4c22.4 0 38.4-19.2 38.4-38.4V128c0-22.4-19.2-38.4-38.4-38.4h-134.4zM928 931.2h-134.4c-48 0-89.6-38.4-89.6-89.6v-134.4c0-48 38.4-89.6 89.6-89.6H928c48 0 89.6 38.4 89.6 89.6v134.4c0 51.2-41.6 89.6-89.6 89.6z m-134.4-262.4c-22.4 0-38.4 19.2-38.4 38.4v134.4c0 22.4 19.2 38.4 38.4 38.4H928c22.4 0 38.4-19.2 38.4-38.4v-134.4c0-22.4-19.2-38.4-38.4-38.4h-134.4z" p-id="41017"></path><path d="M486.4 326.4h48v320h-48z" p-id="41018"></path><path d="M848 668.8c-12.8 0-25.6-9.6-25.6-25.6v-121.6H201.6v121.6c0 12.8-9.6 25.6-25.6 25.6s-25.6-9.6-25.6-25.6v-144c0-12.8 9.6-25.6 25.6-25.6h668.8c12.8 0 25.6 9.6 25.6 25.6v144c0 16-9.6 25.6-22.4 25.6z" p-id="41019"></path></svg>
