<?xml version="1.0" encoding="utf-8"?>
<!-- Generator: Adobe Illustrator 24.0.2, SVG Export Plug-In . SVG Version: 6.00 Build 0)  -->
<svg version="1.1" id="图层_1" xmlns="http://www.w3.org/2000/svg" xmlns:xlink="http://www.w3.org/1999/xlink" x="0px" y="0px"
	 viewBox="0 0 128 128" style="enable-background:new 0 0 128 128;" xml:space="preserve">
<g>
	<g>
		<path d="M26.7,8.8v79c0,0,15.8-19.3,40.4-8.8c9.7,5.3,18.4,13.2,33.4,13.2c14.9,0,24.6-8.8,24.6-8.8V7c0,0-22,22-49.2,3.5
			c-7-5.3-19.3-10.5-29-7.9C36.3,5.3,26.7,8.8,26.7,8.8 M9.1,124.7c-3.5,0-6.1-2.6-6.1-7V7.9c0-3.5,2.6-6.1,6.1-6.1
			c3.5,0,6.1,2.6,6.1,6.1v109.8C16.1,122.1,13.5,124.7,9.1,124.7L9.1,124.7z M9.1,124.7"/>
	</g>
</g>
</svg>
