<svg t="1600679674792" class="icon" viewBox="0 0 1024 1024" version="1.1" xmlns="http://www.w3.org/2000/svg" p-id="5915" width="128" height="128"><path d="M861.5 927h-699c-52.9 0-96-43.1-96-96V254.1c0-52.9 43.1-96 96-96h699c52.9 0 96 43.1 96 96V831c0 52.9-43.1 96-96 96z m-699-704.9c-17.6 0-32 14.4-32 32V831c0 17.6 14.4 32 32 32h699c17.6 0 32-14.4 32-32V254.1c0-17.6-14.4-32-32-32h-699z" p-id="5916"></path><path d="M112.2 340.6h821.3v64H112.2zM319.8 312.6c-17.7 0-32-14.3-32-32V129c0-17.7 14.3-32 32-32s32 14.3 32 32v151.6c0 17.6-14.4 32-32 32zM701.5 312.6c-17.7 0-32-14.3-32-32V129c0-17.7 14.3-32 32-32s32 14.3 32 32v151.6c0 17.6-14.4 32-32 32zM341.1 528.9H225.5c-17.7 0-32-14.3-32-32s14.3-32 32-32h115.7c17.7 0 32 14.3 32 32-0.1 17.7-14.4 32-32.1 32zM573.4 528.9H457.8c-17.7 0-32-14.3-32-32s14.3-32 32-32h115.7c17.7 0 32 14.3 32 32-0.1 17.7-14.4 32-32.1 32zM797.5 528.9H681.9c-17.7 0-32-14.3-32-32s14.3-32 32-32h115.7c17.7 0 32 14.3 32 32-0.1 17.7-14.4 32-32.1 32zM341.1 651.7H225.5c-17.7 0-32-14.3-32-32s14.3-32 32-32h115.7c17.7 0 32 14.3 32 32s-14.4 32-32.1 32zM573.4 651.7H457.8c-17.7 0-32-14.3-32-32s14.3-32 32-32h115.7c17.7 0 32 14.3 32 32s-14.4 32-32.1 32zM797.5 651.7H681.9c-17.7 0-32-14.3-32-32s14.3-32 32-32h115.7c17.7 0 32 14.3 32 32s-14.4 32-32.1 32zM341.1 774.5H225.5c-17.7 0-32-14.3-32-32s14.3-32 32-32h115.7c17.7 0 32 14.3 32 32s-14.4 32-32.1 32zM573.4 774.5H457.8c-17.7 0-32-14.3-32-32s14.3-32 32-32h115.7c17.7 0 32 14.3 32 32s-14.4 32-32.1 32z" p-id="5917"></path></svg>
