<svg t="1590462355745" class="icon" viewBox="0 0 1024 1024" version="1.1" xmlns="http://www.w3.org/2000/svg" p-id="36906" width="128" height="128"><path d="M0 950.857143m36.571429 0l950.857142 0q36.571429 0 36.571429 36.571428l0 0q0 36.571429-36.571429 36.571429l-950.857142 0q-36.571429 0-36.571429-36.571429l0 0q0-36.571429 36.571429-36.571428Z" p-id="36907"></path><path d="M804.571429 0a146.285714 146.285714 0 0 1 146.285714 146.285714v877.714286H73.142857V365.714286a146.285714 146.285714 0 0 1 146.285714-146.285715h219.428572V146.285714a146.285714 146.285714 0 0 1 146.285714-146.285714h219.428572z m73.142857 950.857143V146.285714a73.142857 73.142857 0 0 0-73.142857-73.142857H585.142857a73.142857 73.142857 0 0 0-73.142857 73.142857v146.285715H219.428571a73.142857 73.142857 0 0 0-73.142857 73.142857v585.142857h731.428572z" p-id="36908"></path><path d="M793.014857 381.366857l109.714286 99.254857A146.285714 146.285714 0 0 1 950.857143 589.092571V1024H438.857143V589.092571a146.285714 146.285714 0 0 1 48.128-108.470857l109.714286-99.254857a146.285714 146.285714 0 0 1 196.315428 0zM877.714286 950.857143V589.092571a73.142857 73.142857 0 0 0-24.137143-54.198857l-109.714286-99.254857a73.142857 73.142857 0 0 0-98.011428 0l-109.714286 99.254857a73.142857 73.142857 0 0 0-24.137143 54.198857V950.857143h365.714286z" p-id="36909"></path><path d="M219.428571 512m36.571429 0l73.142857 0q36.571429 0 36.571429 36.571429l0 0q0 36.571429-36.571429 36.571428l-73.142857 0q-36.571429 0-36.571429-36.571428l0 0q0-36.571429 36.571429-36.571429Z" p-id="36910"></path><path d="M219.428571 658.285714m36.571429 0l73.142857 0q36.571429 0 36.571429 36.571429l0 0q0 36.571429-36.571429 36.571428l-73.142857 0q-36.571429 0-36.571429-36.571428l0 0q0-36.571429 36.571429-36.571429Z" p-id="36911"></path><path d="M658.285714 804.571429m36.571429 0l0 0q36.571429 0 36.571428 36.571428l0 146.285714q0 36.571429-36.571428 36.571429l0 0q-36.571429 0-36.571429-36.571429l0-146.285714q0-36.571429 36.571429-36.571428Z" p-id="36912"></path></svg>
