<?xml version="1.0" standalone="no"?><!DOCTYPE svg PUBLIC "-//W3C//DTD SVG 1.1//EN" "http://www.w3.org/Graphics/SVG/1.1/DTD/svg11.dtd"><svg class="icon" width="200px" height="200.00px" viewBox="0 0 1024 1024" version="1.1" xmlns="http://www.w3.org/2000/svg"><path d="M881 225H147c-22.056 0-40 17.944-40 40v550c0 22.056 17.944 40 40 40h734c22.056 0 40-17.944 40-40V265c0-22.056-17.944-40-40-40z m-16 574H163V281h702v518z"  /><path fill="#ffffff" d="M354.423 719.074c5.521 5.991 13.047 9.026 20.598 9.026 6.783 0 13.585-2.45 18.967-7.409l253.745-219.895 158.708 172.232c10.48 11.373 28.194 12.096 39.564 1.617 11.372-10.479 12.097-28.192 1.617-39.564L678.074 451.084c-7.231-7.848-17.099-12.411-27.784-12.848-10.692-0.438-20.893 3.306-28.738 10.537L356.04 679.51c-11.372 10.478-12.096 28.192-1.617 39.564zM201.593 646.013c6.783 0 13.585-2.45 18.967-7.409l186.903-172.227 63.459 72.436c10.19 11.632 27.88 12.8 39.512 2.609 11.632-10.189 12.8-27.88 2.609-39.512l-75.756-86.473-0.47-0.522c-6.879-7.466-16.265-11.806-26.427-12.222-10.148-0.405-19.871 3.146-27.336 10.024L182.612 597.422c-11.372 10.479-12.096 28.193-1.617 39.564 5.521 5.992 13.047 9.027 20.598 9.027z"  /></svg>
