<?xml version="1.0" standalone="no"?><!DOCTYPE svg PUBLIC "-//W3C//DTD SVG 1.1//EN" "http://www.w3.org/Graphics/SVG/1.1/DTD/svg11.dtd"><svg t="1610008300956" class="icon" viewBox="0 0 1024 1024" version="1.1" xmlns="http://www.w3.org/2000/svg" p-id="2816" xmlns:xlink="http://www.w3.org/1999/xlink" width="200" height="200"><defs><style type="text/css"></style></defs><path d="M438.857143 457.142857H109.714286a18.285714 18.285714 0 0 1-18.285715-18.285714V109.714286a18.285714 18.285714 0 0 1 18.285715-18.285715h329.142857a18.285714 18.285714 0 0 1 18.285714 18.285715v329.142857a18.285714 18.285714 0 0 1-18.285714 18.285714z m-310.857143-36.571428h292.571429v-292.571429h-292.571429zM438.857143 932.571429H109.714286a18.285714 18.285714 0 0 1-18.285715-18.285715v-329.142857a18.285714 18.285714 0 0 1 18.285715-18.285714h329.142857a18.285714 18.285714 0 0 1 18.285714 18.285714v329.142857a18.285714 18.285714 0 0 1-18.285714 18.285715z m-310.857143-36.571429h292.571429v-292.571429h-292.571429zM914.285714 201.142857h-329.142857a18.285714 18.285714 0 0 1 0-36.571428h329.142857a18.285714 18.285714 0 0 1 0 36.571428zM914.285714 384h-329.142857a18.285714 18.285714 0 0 1 0-36.571429h329.142857a18.285714 18.285714 0 0 1 0 36.571429zM914.285714 676.571429h-329.142857a18.285714 18.285714 0 0 1 0-36.571429h329.142857a18.285714 18.285714 0 0 1 0 36.571429zM914.285714 859.428571h-329.142857a18.285714 18.285714 0 0 1 0-36.571428h329.142857a18.285714 18.285714 0 0 1 0 36.571428z" p-id="2817"></path></svg>