<svg t="1649316953374" class="icon" viewBox="0 0 1024 1024" version="1.1" xmlns="http://www.w3.org/2000/svg" p-id="4857" width="200" height="200"><path d="M895.872 110.208H760.064v-38.4a33.088 33.088 0 0 0-66.176 0v38.336H368.32V71.808a33.088 33.088 0 0 0-66.176 0v38.336H112.256a95.36 95.36 0 0 0-95.232 95.232v684.352c0 52.48 42.752 95.232 95.232 95.232h446.528a31.744 31.744 0 1 0 0-63.488H112.256a31.744 31.744 0 0 1-31.744-31.744V342.912h847.04v219.584a31.744 31.744 0 1 0 63.488 0V205.44a95.232 95.232 0 0 0-95.168-95.232z m31.808 201.024H80.512V205.44c0-17.536 14.208-31.744 31.744-31.744h189.952v46.272a33.088 33.088 0 0 0 66.176 0v-46.272h325.632v46.272c0 18.304 14.656 33.088 33.088 33.088a32.96 32.96 0 0 0 33.088-33.088v-46.272H896c17.408 0 31.744 14.208 31.744 31.744l-0.064 105.792z m0 0" fill="" p-id="4858"></path><path d="M921.664 788.544h0.32L881.6 639.232a41.152 41.152 0 0 0-35.2-31.872 48.96 48.96 0 0 0-32.64 8.64 39.04 39.04 0 0 0-27.84-15.68 58.496 58.496 0 0 0-17.024 1.28 44.352 44.352 0 0 0-16 7.552l-0.32 0.32a46.336 46.336 0 0 0-5.76 5.44 41.92 41.92 0 0 0-16.704-5.76h-1.088a54.016 54.016 0 0 0-16.32 1.28 43.968 43.968 0 0 0-12.48 5.312L684.8 558.912a40.384 40.384 0 0 0-35.392-31.744A47.04 47.04 0 0 0 632 528.512a42.752 42.752 0 0 0-15.68 7.936 39.552 39.552 0 0 0-14.784 44.544l34.432 129.536c-4.224 0-8.96 0.64-13.056 1.536a39.04 39.04 0 0 0-15.68 7.68l-0.384 0.448a40.32 40.32 0 0 0-14.656 44.48l19.584 72.704c10.112 38.336 12.096 39.936 39.68 60.672l5.952 4.288 42.624 32.704c6.272 4.608 15.872 3.84 20.928-2.944a14.784 14.784 0 0 0-2.88-20.736l-42.624-33.024-5.568-4.16c-19.968-15.168-21.312-16.128-29.184-44.288l-19.328-73.152a11.712 11.712 0 0 1 3.584-12.8l0.32-0.32a11.2 11.2 0 0 1 5.12-2.432c2.432-0.32 4.288-0.832 6.272-0.32 4.288 0.32 8.64 3.072 9.728 9.28l17.216 63.04a15.04 15.04 0 1 0 29.184-7.68l-17.216-63.232v-0.32L630.4 573.376a11.968 11.968 0 0 1 4.032-13.248 14.72 14.72 0 0 1 5.376-2.24c1.92-0.832 4.288-0.832 5.952-0.832a12.16 12.16 0 0 1 10.24 9.6l25.792 96.448 11.776 43.968a14.656 14.656 0 0 0 18.496 10.432 14.272 14.272 0 0 0 10.432-18.112l-11.648-43.84v-0.32c-1.344-5.952 0.32-10.112 3.584-12.8h0.32a13.824 13.824 0 0 1 5.568-2.752c2.112-0.448 3.968-0.448 5.952-0.448 4.608 0.448 8.64 3.52 10.24 9.408l1.6 5.44 10.112 38.272c2.112 8 10.368 12.8 18.432 10.752a15.168 15.168 0 0 0 10.56-18.432l-10.432-38.72c-1.28-5.44 0.832-9.728 3.904-11.968l0.32-0.768c1.6-0.832 3.456-1.92 5.44-2.304 1.92-0.64 4.288-0.64 5.952-0.64 4.416 0.64 8.512 3.648 10.24 9.408l5.952 22.144 4.096 16a14.528 14.528 0 0 0 18.432 10.432 14.528 14.528 0 0 0 10.752-18.112l-4.096-16.192-0.32-0.32c-1.472-5.888 0.64-10.24 4.096-12.8v-0.192c1.408-1.344 3.392-1.792 5.248-2.56a12.672 12.672 0 0 1 5.952-0.704c4.416 0.704 8.448 3.712 10.56 9.92l39.36 147.328 1.024 75.264a14.976 14.976 0 0 0 15.36 14.4 14.848 14.848 0 0 0 14.72-14.848l-1.344-77.184c-0.128-1.792-0.448-2.624-0.768-3.712zM340.608 585.6h-163.2V422.4h163.2v163.2z m-144-19.2h124.8V441.6h-124.8v124.8z m383.68 19.2h-163.2V422.4h163.264v163.2z m-144.064-19.2h124.8V441.6h-124.8v124.8zM340.608 796.608h-163.2V633.344h163.2v163.264z m-144-19.264h124.8V652.608h-124.8v124.736zM580.288 796.608h-163.2V633.344h163.264v163.264z m-144.064-19.264h124.8V652.608h-124.8v124.736z" fill="" p-id="4859"></path><path d="M820.608 585.6H673.984l-16.64-33.6V422.4h163.264v163.2z m-144-19.2h124.736V441.6H676.608v124.8z" fill="" p-id="4860"></path></svg>