<?xml version="1.0" encoding="utf-8"?>
<!-- Generator: Adobe Illustrator 26.0.1, SVG Export Plug-In . SVG Version: 6.00 Build 0)  -->
<svg version="1.1" id="图层_1" xmlns="http://www.w3.org/2000/svg" xmlns:xlink="http://www.w3.org/1999/xlink" x="0px" y="0px"
	 viewBox="0 0 128 128" style="enable-background:new 0 0 128 128;" xml:space="preserve">
<style type="text/css">
	.st0{clip-path:url(#SVGID_00000067949444973406710270000004874250379534561182_);}
</style>
<g>
	<g>
		<defs>
			<rect id="SVGID_1_" x="3.2" y="4.5" width="121.7" height="121.8"/>
		</defs>
		<clipPath id="SVGID_00000160897329833694169400000003672246350739507594_">
			<use xlink:href="#SVGID_1_"  style="overflow:visible;"/>
		</clipPath>
		<path style="clip-path:url(#SVGID_00000160897329833694169400000003672246350739507594_);" d="M64,4.6C30.4,4.6,3.2,31.9,3.2,65.5
			c0,33.6,27.2,60.8,60.8,60.8s60.8-27.2,60.8-60.8C124.8,31.9,97.6,4.6,64,4.6L64,4.6z M34.5,46.5c4.7,0,8.6,3.8,8.6,8.6
			s-3.8,8.6-8.6,8.6c-4.7,0-8.6-3.8-8.6-8.6S29.8,46.5,34.5,46.5L34.5,46.5z M36.4,93.5c-1.2-1.2-0.3-3.2,1.4-3.2h52.6
			c1.7,0,2.5,2,1.4,3.2c-11.1,11.8-26,12-27.7,12C50.2,105.5,40.8,98.1,36.4,93.5L36.4,93.5z M93.5,63.7c-4.7,0-8.6-3.8-8.6-8.6
			s3.8-8.6,8.6-8.6c4.7,0,8.6,3.8,8.6,8.6S98.2,63.7,93.5,63.7L93.5,63.7z M93.5,63.7"/>
	</g>
</g>
</svg>
