<svg t="1590462825047" class="icon" viewBox="0 0 1024 1024" version="1.1" xmlns="http://www.w3.org/2000/svg" p-id="37737" width="128" height="128"><path d="M905.728 401.92C905.728 181.248 732.672 0 512 0S118.272 181.248 118.272 401.92c0 165.376 102.4 314.88 260.096 370.176l-62.976 197.12c-7.68 15.872 0 39.424 23.552 47.104 15.872 7.68 39.424 0 47.104-23.552l78.848-236.544c7.68-7.68 7.68-23.552 0-31.744 0-7.68-15.872-15.872-23.552-15.872-141.824-31.744-244.224-165.376-244.224-307.2 0-181.248 141.824-323.072 314.88-323.072s314.88 141.824 314.88 323.072c0 134.144-94.72 267.776-228.352 299.52l-23.552 23.552v31.744l78.848 244.224c7.68 15.872 23.552 23.552 39.424 23.552 0 0 7.68 0 15.872-7.68 15.872-7.68 31.744-23.552 23.552-47.104l-70.656-204.8c141.312-55.296 243.712-205.312 243.712-362.496z" p-id="37738"></path><path d="M693.248 377.856c0-23.552-15.872-39.424-39.424-39.424s-39.424 15.872-39.424 39.424c0 55.296-47.104 102.4-102.4 102.4s-102.4-47.104-102.4-102.4c0-23.552-15.872-39.424-39.424-39.424s-39.424 15.872-39.424 39.424c0 102.4 78.848 181.248 181.248 181.248s181.248-86.528 181.248-181.248z" p-id="37739"></path></svg>
