<svg t="1590463159135" class="icon" viewBox="0 0 1126 1024" version="1.1" xmlns="http://www.w3.org/2000/svg" p-id="38416" width="128" height="128"><path d="M946.145723 487.670539H281.140444c-14.057022 0-25.951426 11.894403-25.951426 25.951425 0 14.057022 11.894403 25.951426 25.951426 25.951426h665.005279c14.057022 0 25.951426-11.894403 25.951426-25.951426-1.081309-14.057022-11.894403-25.951426-25.951426-25.951425M843.421331 845.583949H178.416051c-14.057022 0-25.951426 11.894403-25.951426 25.951426 0 14.057022 11.894403 25.951426 25.951426 25.951425H843.421331c14.057022 0 25.951426-11.894403 25.951425-25.951425 0-14.057022-11.894403-25.951426-25.951425-25.951426m0-715.826821H178.416051c-14.057022 0-25.951426 11.894403-25.951426 25.951425 0 14.057022 11.894403 25.951426 25.951426 25.951426H843.421331c14.057022 0 25.951426-11.894403 25.951425-25.951426 0-14.057022-11.894403-25.951426-25.951425-25.951425" p-id="38417"></path><path d="M1011.024287 972.929757H153.545935c-56.228089 0-102.724393-46.496304-102.724393-102.724393s46.496304-102.724393 102.724393-102.724393h857.478352c-23.788807 27.032735-40.008448 62.715945-40.008448 102.724393s15.138332 76.772967 40.008448 102.724393zM0 871.286674C0 955.628807 69.203801 1024.832608 153.545935 1024.832608H1124.561774v-50.821541c-56.228089 0-102.724393-46.496304-102.724393-102.724393s45.414995-102.724393 102.724393-102.724393V717.740739H153.545935C69.203801 717.740739 0 786.944541 0 871.286674z m153.545935-613.102429c-56.228089 0-102.724393-45.414995-102.724393-102.724393S97.317846 53.816769 153.545935 53.816769h857.478352c-23.788807 27.032735-40.008448 62.715945-40.008448 102.724393s15.138332 75.691658 40.008448 102.724392H153.545935zM1124.561774 53.816769V2.995227H153.545935C69.203801 1.913918 0 71.117719 0 155.459852s69.203801 153.545935 153.545935 153.545935H1124.561774v-50.821542c-56.228089 0-102.724393-45.414995-102.724393-102.724393s46.496304-101.643083 102.724393-101.643083z m-153.545935 562.280887H113.537487c23.788807-27.032735 40.008448-62.715945 40.008448-102.724393s-15.138332-75.691658-40.008448-102.724393h857.478352c56.228089 0 102.724393 46.496304 102.724393 102.724393s-46.496304 102.724393-102.724393 102.724393z m0-256.270328H0v50.821542c56.228089 0 102.724393 46.496304 102.724393 102.724393S56.228089 616.097656 0 616.097656v50.821541h971.015839c84.342133 0 153.545935-69.203801 153.545935-153.545934 0-84.342133-69.203801-153.545935-153.545935-153.545935z" p-id="38418"></path></svg>
