<svg t="1590462882701" class="icon" viewBox="0 0 1024 1024" version="1.1" xmlns="http://www.w3.org/2000/svg" p-id="37872" width="128" height="128"><path d="M718.551543 619.308183l-146.112299 267.258973-21.674259-63.633088 40.057151-80.309347-80.089922-80.333727-80.089922 80.187444 40.057152 80.333727-25.843324 65.193441-142.089518-268.843705S0.082772 780.121921 0.082772 939.350926C0.082772 983.333336 18.173098 1024 62.374933 1024h898.59186c43.884889 0 62.414064-40.227815 62.414064-84.088323 0-149.403666-304.829314-320.603493-304.829314-320.603494z" p-id="37873"></path><path d="M774.090308 290.049615l-0.146283-12.531574-10.483612-7.070343c-1.292166-0.877698-2.584332-1.731015-3.730216-2.43805C738.202221 82.669135 739.640671-26.67738 524.36091 5.626774c-75.482009 11.239408-158.00998-12.117105-204.94243 22.18625-59.000795 55.392482-63.145479 138.627488-47.225017 236.246984a91.158666 91.158666 0 0 0-10.605515 6.509592l-10.483612 7.070343-0.146283 12.531574c-0.585132 32.450437 3.583933 60.000395 12.33653 80.918859 8.045563 19.163068 19.821341 33.303755 35.595521 41.812547 18.797361 63.754991 45.786567 111.491998 79.50479 145.966016 36.741404 37.497199 80.943239 58.830132 131.045154 67.192641l4.43725 0.731415 4.46163-0.877698c55.392482-11.678257 99.594317-33.888886 134.897273-71.09352 32.743003-34.474018 57.123497-80.918859 75.09192-142.918454 15.189048-8.801358 26.525977-23.088328 34.132692-42.129494 8.191846-20.894083 12.068344-47.858909 11.629495-79.724214z m-57.123497 61.585127c-4.290967 10.532373-10.191046 17.456434-17.505194 20.040766l-12.190247 4.339728-3.315747 12.409671c-16.091126 59.561546-37.448438 102.666259-66.314943 132.971213-27.111109 28.525178-61.560747 46.152275-104.909265 55.953234-38.179853-7.216626-71.751793-23.795362-99.594317-52.369301-29.988007-30.573139-53.83213-74.994399-70.459627-135.994394l-3.608313-12.970423-12.921662-4.047162c-7.582334-2.291766-13.482413-9.093924-17.919663-19.601917-4.315347-10.38609-7.045963-23.649079-8.191846-39.374498 11.922061-1.731015 25.111909-5.193045 31.719022-0.877697 0.731415-2.145483 1.438449-4.754196 2.145484-7.631095h0.292566l0.9996-5.193045c3.608313-14.140686 7.606714-102.836923 11.215027-117.123892 1.414069-4.169064 1.852918-8.923261 4.583533-12.239008 17.358912 23.649079 148.696632 26.379694 224.763772-26.550358l-14.213828 38.643083 14.482014 2.901279 16.237409-25.965226-2.023581 18.163468 15.359711 2.023581 9.605914-29.841725c18.943644 10.800559 39.764585 25.233811 58.415663 17.432053 6.168265 13.994403 11.068744 99.521176 14.067545 115.953629l4.022782 21.211029 7.045962-0.438849 3.291367 10.971223c8.313748-1.023981 15.505994-1.145883 22.527576-1.292167-0.853317 15.28657-3.43765 28.281373-7.606714 38.521181z" p-id="37874"></path></svg>
