<?xml version="1.0" standalone="no"?><!DOCTYPE svg PUBLIC "-//W3C//DTD SVG 1.1//EN" "http://www.w3.org/Graphics/SVG/1.1/DTD/svg11.dtd"><svg class="icon" width="200px" height="200.00px" viewBox="0 0 1024 1024" version="1.1" xmlns="http://www.w3.org/2000/svg"><path d="M139.636 139.636v744.728h744.728V139.636H139.636z m0-46.545h744.728a46.545 46.545 0 0 1 46.545 46.545v744.728a46.545 46.545 0 0 1-46.545 46.545H139.636a46.545 46.545 0 0 1-46.545-46.545V139.636a46.545 46.545 0 0 1 46.545-46.545zM395.636 93.09q23.273 0 23.273 23.274v791.272q0 23.273-23.273 23.273-23.272 0-23.272-23.273V116.364q0-23.273 23.272-23.273zM928.256 395.636a23.273 23.273 0 0 1-23.273 23.273H395.636a23.273 23.273 0 1 1 0-46.545h509.347a23.273 23.273 0 0 1 23.273 23.272z" /></svg>
