<svg t="1590462557577" class="icon" viewBox="0 0 1024 1024" version="1.1" xmlns="http://www.w3.org/2000/svg" p-id="37323" width="128" height="128"><path d="M898.722 126.986H795.036v34.237c0 36.522-29.711 66.234-66.234 66.234-36.521 0-66.234-29.712-66.234-66.234v-34.237H361.433v34.237c0 36.522-29.713 66.234-66.234 66.234-36.522 0-66.234-29.712-66.234-66.234v-34.237H125.278c-55.073 0-99.878 44.805-99.878 99.878v695.258c0 55.073 44.805 99.878 99.878 99.878h773.443c55.073 0 99.878-44.805 99.878-99.878V226.864c0.001-55.073-44.804-99.878-99.877-99.878z m39.655 795.136c0 21.865-17.788 39.655-39.655 39.655H125.278c-21.866 0-39.655-17.79-39.655-39.655V381.126h852.754v540.996z" p-id="37324"></path><path d="M240.858 536.501m-77.085 0a77.085 77.085 0 1 0 154.17 0 77.085 77.085 0 1 0-154.17 0Z" p-id="37325"></path><path d="M512 536.501m-77.085 0a77.085 77.085 0 1 0 154.17 0 77.085 77.085 0 1 0-154.17 0Z" p-id="37326"></path><path d="M783.142 536.501m-77.085 0a77.085 77.085 0 1 0 154.17 0 77.085 77.085 0 1 0-154.17 0Z" p-id="37327"></path><path d="M240.858 774.983m-77.084 0a77.084 77.084 0 1 0 154.168 0 77.084 77.084 0 1 0-154.168 0Z" p-id="37328"></path><path d="M512 774.983m-77.084 0a77.084 77.084 0 1 0 154.168 0 77.084 77.084 0 1 0-154.168 0Z" p-id="37329"></path><path d="M783.142 774.983m-77.084 0a77.084 77.084 0 1 0 154.168 0 77.084 77.084 0 1 0-154.168 0Z" p-id="37330"></path><path d="M295.198 203.369c23.239 0 42.146-18.906 42.146-42.146V68.234c0-23.239-18.906-42.145-42.146-42.145s-42.146 18.906-42.146 42.145v92.989c0.001 23.24 18.907 42.146 42.146 42.146z" p-id="37331"></path><path d="M295.198 227.458c36.521 0 66.234-29.712 66.234-66.234V68.234C361.433 31.712 331.72 2 295.198 2c-36.522 0-66.234 29.712-66.234 66.234v92.988c0 36.523 29.712 66.236 66.234 66.236zM253.053 68.234c0-23.239 18.906-42.145 42.146-42.145s42.146 18.906 42.146 42.145v92.989c0 23.24-18.906 42.146-42.146 42.146s-42.146-18.906-42.146-42.146V68.234z" p-id="37332"></path><path d="M728.802 203.369c23.239 0 42.146-18.906 42.146-42.146V68.234c0-23.239-18.906-42.145-42.146-42.145-23.238 0-42.145 18.906-42.145 42.145v92.989c0 23.24 18.906 42.146 42.145 42.146z" p-id="37333"></path><path d="M728.802 227.458c36.523 0 66.234-29.712 66.234-66.234V68.234C795.036 31.712 765.325 2 728.802 2c-36.521 0-66.234 29.712-66.234 66.234v92.988c-0.001 36.523 29.713 66.236 66.234 66.236zM686.657 68.234c0-23.239 18.906-42.145 42.145-42.145 23.239 0 42.146 18.906 42.146 42.145v92.989c0 23.24-18.906 42.146-42.146 42.146-23.238 0-42.145-18.906-42.145-42.146V68.234z" p-id="37334"></path></svg>
