<svg t="1590463030794" class="icon" viewBox="0 0 1024 1024" version="1.1" xmlns="http://www.w3.org/2000/svg" p-id="38007" width="128" height="128"><path d="M907.946667 167.253333c10.24 0 20.48 10.24 20.48 20.48v750.933334c0 10.24-10.24 20.48-20.48 20.48H116.053333c-10.24 0-20.48-10.24-20.48-20.48v-750.933334c0-10.24 10.24-20.48 20.48-20.48h791.893334m0-61.44H116.053333C68.266667 105.813333 30.72 143.36 30.72 187.733333v750.933334C30.72 986.453333 68.266667 1024 116.053333 1024h795.306667c47.786667 0 81.92-37.546667 81.92-81.92v-750.933333c0-47.786667-37.546667-85.333333-85.333333-85.333334z" p-id="38008"></path><path d="M935.253333 395.946667H78.506667c-17.066667 0-30.72-13.653333-30.72-30.72s13.653333-30.72 30.72-30.72h856.746666c17.066667 0 30.72 13.653333 30.72 30.72s-13.653333 30.72-30.72 30.72z" p-id="38009"></path><path d="M747.52 628.053333H256c-17.066667 0-30.72-13.653333-30.72-30.72s13.653333-30.72 30.72-30.72h491.52c17.066667 0 30.72 13.653333 30.72 30.72s-13.653333 30.72-30.72 30.72z m-228.693333 146.773334H256c-17.066667 0-30.72-13.653333-30.72-30.72s13.653333-30.72 30.72-30.72h262.826667c17.066667 0 30.72 13.653333 30.72 30.72 0 13.653333-13.653333 30.72-30.72 30.72z" p-id="38010"></path><path d="M344.746667 273.066667c-17.066667 0-30.72-17.066667-30.72-34.133334V30.72c0-17.066667 13.653333-30.72 30.72-30.72s30.72 13.653333 30.72 30.72V238.933333c0 17.066667-13.653333 34.133333-30.72 34.133334z m334.506666 0c-17.066667 0-30.72-17.066667-30.72-34.133334V30.72c0-17.066667 13.653333-30.72 30.72-30.72s30.72 13.653333 30.72 30.72V238.933333c0 17.066667-13.653333 34.133333-30.72 34.133334z" p-id="38011"></path></svg>
