<?xml version="1.0" encoding="utf-8"?>
<!-- Generator: Adobe Illustrator 26.0.1, SVG Export Plug-In . SVG Version: 6.00 Build 0)  -->
<svg version="1.1" id="图层_1" xmlns="http://www.w3.org/2000/svg" xmlns:xlink="http://www.w3.org/1999/xlink" x="0px" y="0px"
	 viewBox="0 0 128 128" style="enable-background:new 0 0 128 128;" xml:space="preserve">
<path d="M88.2,12.7c17,0,30.7,12.5,30.7,28c0,4.8-1.4,9.5-4,13.8c-3.9,6.2-10,10.8-17.5,13c-1.6,0.5-3.2,0.8-4.9,0.8
	c-3.2,0.1-5.8-2.5-5.8-5.6c0,0,0-0.1,0-0.1c0-3.2,2.6-5.7,5.8-5.7c0.2,0,0.7,0,1.3-0.2c5-1.4,9-4.2,11.2-8.1
	c1.5-2.4,2.2-5.1,2.2-7.8c0-9.1-8.5-16.5-18.9-16.5c-3.6,0-7.1,0.9-10.3,2.6c-5.5,3.1-8.8,8.3-8.8,13.9v48.1
	c0,9.8-5.5,18.7-14.6,23.8c-4.9,2.8-10.4,4.1-16,4.1c-16.9,0-30.7-12.5-30.7-28c0-4.8,1.4-9.5,4-13.8c3.9-6.2,10.1-10.8,17.5-13
	c2.1-0.6,3.5-0.8,4.9-0.8c3.3,0,5.8,2.5,5.8,5.7c0,3.2-2.5,5.7-5.7,5.7c0,0-0.1,0-0.1,0c-0.2,0-0.7,0-1.3,0.2c-5,1.5-9,4.4-11.2,8
	c-1.5,2.4-2.2,5.1-2.2,7.8c0,9.1,8.5,16.5,19,16.5c3.6,0,7.1-0.9,10.3-2.6c5.5-3.1,8.8-8.3,8.8-13.9v-48c0-9.8,5.5-18.7,14.6-23.8
	C77.1,14.1,82.6,12.6,88.2,12.7z"/>
</svg>
