<?xml version="1.0" encoding="utf-8"?>
<!-- Generator: Adobe Illustrator 26.0.1, SVG Export Plug-In . SVG Version: 6.00 Build 0)  -->
<svg version="1.1" id="图层_1" xmlns="http://www.w3.org/2000/svg" xmlns:xlink="http://www.w3.org/1999/xlink" x="0px" y="0px"
	 viewBox="0 0 128 128" style="enable-background:new 0 0 128 128;" xml:space="preserve">
<path d="M64.3,9.8c14.6,0,26.5,14.9,26.5,33.2c0,9.3-3.2,18.2-8.6,24.5c-0.6,0.7-1.2,1.3-1.9,2c-1.7,1.9-2.4,3.7-2.4,5.6
	c0,4.4,4.4,8.7,11.6,11.6l1.4,0.5c1.3,0.4,2.7,0.8,4.1,1.2l0.8,0.2c17,6,27,16.3,27,27.5c0,1.7-1.2,3-2.8,3.3l-0.6,0.1H8.7
	c-1.9,0-3.4-1.5-3.4-3.4c0,0,0,0,0,0c0-11.7,10.8-22.2,28.8-28c0.9-0.3,1.9-0.6,2.9-0.9l1-0.2C46,84.1,51,79.7,51,75.2
	c0-2.3-1.2-4.2-2.4-5.5L48,69.2c-6.5-6.3-10.3-15.8-10.3-26.2C37.8,24.7,49.7,9.8,64.3,9.8z M63.6,75.1l-9.3,25.4l9.3,11.9l10-11.9
	L63.6,75.1L63.6,75.1z"/>
</svg>
