<?xml version="1.0" encoding="utf-8"?>
<!-- Generator: Adobe Illustrator 26.0.1, SVG Export Plug-In . SVG Version: 6.00 Build 0)  -->
<svg version="1.1" id="图层_1" xmlns="http://www.w3.org/2000/svg" xmlns:xlink="http://www.w3.org/1999/xlink" x="0px" y="0px"
	 viewBox="0 0 128 128" style="enable-background:new 0 0 128 128;" xml:space="preserve">
<path d="M85.7,48.6c1.4,0,2.8,0.1,4.2,0.3c-3.7-17.3-22.4-30.1-43.7-30.1c-23.8,0-43.3,16.1-43.3,36.5c0,11.8,6.5,21.4,17.3,28.9
	L15.9,97L31,89.5c5.4,1.1,9.8,2.2,15.2,2.2c1.4,0,2.7-0.1,4-0.2c-0.8-2.9-1.3-5.9-1.3-9C48.9,63.7,65.1,48.6,85.7,48.6z M62.4,36.9
	c3.3,0,5.4,2.1,5.4,5.4c0,3.2-2.2,5.4-5.4,5.4c-3.2,0-6.5-2.2-6.5-5.4C55.9,39.1,59.2,36.9,62.4,36.9z M32.1,47.6
	c-3.2,0-6.5-2.2-6.5-5.4c0-3.2,3.3-5.4,6.5-5.4c3.2,0,5.4,2.1,5.4,5.4C37.5,45.5,35.4,47.6,32.1,47.6z M125.2,82
	c0-17.1-17.3-31.1-36.8-31.1c-20.6,0-36.8,14-36.8,31.1c0,17.2,16.2,31.1,36.8,31.1c4.3,0,8.7-1.1,13-2.1l11.9,6.4l-3.3-10.7
	C118.8,100.2,125.2,91.6,125.2,82z M76.5,76.6c-2.2,0-4.3-2.1-4.3-4.3c0-2.1,2.2-4.3,4.3-4.3c3.3,0,5.4,2.1,5.4,4.3
	C81.9,74.5,79.8,76.6,76.5,76.6z M100.3,76.6c-2.1,0-4.3-2.1-4.3-4.3c0-2.1,2.2-4.3,4.3-4.3c3.2,0,5.4,2.1,5.4,4.3
	C105.7,74.5,103.6,76.6,100.3,76.6z"/>
</svg>
